<svg xmlns="http://www.w3.org/2000/svg" width="19.393" height="22.016" viewBox="0 0 19.393 22.016">
  <g id="Group_31" data-name="Group 31" transform="translate(0 512)">
    <path id="Path_149" data-name="Path 149" d="M99.427-452h-8.7a.725.725,0,0,0-.725.725v5.225a.725.725,0,0,0,.725.725h8.7a.725.725,0,0,0,.725-.725v-5.225A.725.725,0,0,0,99.427-452Zm-.725,5.225H91.451v-3.775H98.7Z" transform="translate(-86.55 -57.1)" fill="#1c75ec"/>
    <path id="Path_150" data-name="Path 150" d="M19.143-507.9a.645.645,0,0,0-.9.115l-1.763,2.276a.645.645,0,0,0-.135.4v7.273h-.86v-12.223A1.937,1.937,0,0,0,13.545-512H3.225a1.937,1.937,0,0,0-1.935,1.935v16.211H.645a.645.645,0,0,0-.645.645v2.58a.645.645,0,0,0,.645.645h15.48a.645.645,0,0,0,.645-.645v-2.58a.645.645,0,0,0-.645-.645H15.48v-2.7h1.5a.645.645,0,0,0,.645-.645v-5.795h.414a.645.645,0,0,0,.645-.645v-2.625l.569-.735A.645.645,0,0,0,19.143-507.9ZM2.58-510.065a.646.646,0,0,1,.645-.645h10.32a.646.646,0,0,1,.645.645v16.211H2.58Zm12.9,17.5v1.29H1.29v-1.29Z" fill="#1c75ec"/>
    <path id="Path_151" data-name="Path 151" d="M92.616-281.922h-1.89A.725.725,0,0,0,90-281.2a.725.725,0,0,0,.725.725h1.89a.725.725,0,0,0,.725-.725A.725.725,0,0,0,92.616-281.922Z" transform="translate(-86.218 -220.261)" fill="#1c75ec"/>
  </g>
</svg>
