<svg xmlns="http://www.w3.org/2000/svg" width="21.8" height="21.8" viewBox="0 0 21.8 21.8">
  <g id="Group_3" data-name="Group 3" transform="translate(0 512)">
    <path id="Path_5" data-name="Path 5" d="M366.852-322a.852.852,0,0,1,.852.852.852.852,0,0,1-.852.852.852.852,0,0,1-.852-.852A.852.852,0,0,1,366.852-322Z" transform="translate(-350.416 -181.91)" fill="#adb2b9" fill-rule="evenodd"/>
    <path id="Path_6" data-name="Path 6" d="M18.394-510.3H17.287v-.852a.852.852,0,0,0-.852-.852.852.852,0,0,0-.852.852v.852H11.709v-.852a.852.852,0,0,0-.852-.852.852.852,0,0,0-.852.852v.852H6.174v-.852A.852.852,0,0,0,5.322-512a.852.852,0,0,0-.852.852v.852H3.406A3.41,3.41,0,0,0,0-506.891v13.284A3.41,3.41,0,0,0,3.406-490.2H9.921a.852.852,0,0,0,.852-.852.852.852,0,0,0-.852-.852H3.406a1.705,1.705,0,0,1-1.7-1.7v-13.284a1.705,1.705,0,0,1,1.7-1.7H4.471v.852a.852.852,0,0,0,.852.852.852.852,0,0,0,.852-.852v-.852h3.832v.852a.852.852,0,0,0,.852.852.852.852,0,0,0,.852-.852v-.852h3.875v.852a.852.852,0,0,0,.852.852.852.852,0,0,0,.852-.852v-.852h1.107a1.705,1.705,0,0,1,1.7,1.7v4.854a.852.852,0,0,0,.852.852.852.852,0,0,0,.852-.852v-4.854A3.41,3.41,0,0,0,18.394-510.3Z" transform="translate(0 0)" fill="#adb2b9"/>
    <path id="Path_7" data-name="Path 7" d="M275.152-242A5.158,5.158,0,0,0,270-236.848a5.158,5.158,0,0,0,5.152,5.152,5.158,5.158,0,0,0,5.152-5.152A5.158,5.158,0,0,0,275.152-242Zm0,8.6a3.453,3.453,0,0,1-3.449-3.449,3.453,3.453,0,0,1,3.449-3.449,3.453,3.453,0,0,1,3.449,3.449A3.453,3.453,0,0,1,275.152-233.4Z" transform="translate(-258.504 -258.504)" fill="#adb2b9"/>
    <path id="Path_8" data-name="Path 8" d="M373.086-180.254H372.7v-.894a.852.852,0,0,0-.852-.852.852.852,0,0,0-.852.852v1.746a.852.852,0,0,0,.852.852h1.235a.852.852,0,0,0,.852-.852A.852.852,0,0,0,373.086-180.254Z" transform="translate(-355.203 -315.949)" fill="#adb2b9"/>
    <path id="Path_9" data-name="Path 9" d="M279.852-322a.852.852,0,0,1,.852.852.852.852,0,0,1-.852.852.852.852,0,0,1-.852-.852A.852.852,0,0,1,279.852-322Z" transform="translate(-267.121 -181.91)" fill="#adb2b9" fill-rule="evenodd"/>
    <path id="Path_10" data-name="Path 10" d="M192.852-235a.852.852,0,0,1,.852.852.852.852,0,0,1-.852.852.852.852,0,0,1-.852-.852A.852.852,0,0,1,192.852-235Z" transform="translate(-183.825 -265.206)" fill="#adb2b9" fill-rule="evenodd"/>
    <path id="Path_11" data-name="Path 11" d="M105.852-322a.852.852,0,0,1,.852.852.852.852,0,0,1-.852.852.852.852,0,0,1-.852-.852A.852.852,0,0,1,105.852-322Z" transform="translate(-100.529 -181.91)" fill="#adb2b9" fill-rule="evenodd"/>
    <path id="Path_12" data-name="Path 12" d="M105.852-235a.852.852,0,0,1,.852.852.852.852,0,0,1-.852.852.852.852,0,0,1-.852-.852A.852.852,0,0,1,105.852-235Z" transform="translate(-100.529 -265.206)" fill="#adb2b9" fill-rule="evenodd"/>
    <path id="Path_13" data-name="Path 13" d="M105.852-148a.852.852,0,0,1,.852.852.852.852,0,0,1-.852.852.852.852,0,0,1-.852-.852A.852.852,0,0,1,105.852-148Z" transform="translate(-100.529 -348.502)" fill="#adb2b9" fill-rule="evenodd"/>
    <path id="Path_14" data-name="Path 14" d="M192.852-148a.852.852,0,0,1,.852.852.852.852,0,0,1-.852.852.852.852,0,0,1-.852-.852A.852.852,0,0,1,192.852-148Z" transform="translate(-183.825 -348.502)" fill="#adb2b9" fill-rule="evenodd"/>
    <path id="Path_15" data-name="Path 15" d="M192.852-322a.852.852,0,0,1,.852.852.852.852,0,0,1-.852.852.852.852,0,0,1-.852-.852A.852.852,0,0,1,192.852-322Z" transform="translate(-183.825 -181.91)" fill="#adb2b9" fill-rule="evenodd"/>
  </g>
</svg>
