<svg xmlns="http://www.w3.org/2000/svg" width="43.029" height="43" viewBox="0 0 43.029 43">
  <g id="Group_32" data-name="Group 32" transform="translate(0 15.108)">
    <path id="Path_45" data-name="Path 45" d="M40.014.364V-5.872L33.741-9.009l-6.1-6.1-6.128,1.531-6.128-1.531-6.1,6.1L3.014-5.872V.364L0,6.392,3.014,12.42v6.236l6.273,3.136,6.1,6.1,6.128-1.531,6.128,1.531,6.1-6.1,6.273-3.136V12.42l3.014-6.028ZM37.168,11.749V16.9l-4.907,2.453-5.49,5.388-5.257-1.315-5.257,1.315-5.123-5.123L5.857,16.894V11.749L3.182,6.392,5.86,1.036V-4.113l4.907-2.453,5.493-5.391,5.257,1.315,5.257-1.315L31.9-6.834l5.277,2.721V1.036l2.673,5.357Z" transform="translate(0 0)" fill="#1c77ec"/>
    <path id="Path_46" data-name="Path 46" d="M21.282-10.907,4.205,6.169,6.218,8.182,23.294-8.895Z" transform="translate(7.764 7.756)" fill="#1c77ec" fill-rule="evenodd"/>
    <path id="Path_47" data-name="Path 47" d="M8.328-2.515A4.274,4.274,0,0,0,12.6-6.785a4.274,4.274,0,0,0-4.269-4.269A4.274,4.274,0,0,0,4.059-6.785,4.274,4.274,0,0,0,8.328-2.515Zm0-5.692A1.424,1.424,0,0,1,9.751-6.785,1.424,1.424,0,0,1,8.328-5.362,1.424,1.424,0,0,1,6.905-6.785,1.424,1.424,0,0,1,8.328-8.208Z" transform="translate(7.494 7.484)" fill="#1c77ec"/>
    <path id="Path_48" data-name="Path 48" d="M12.328-7.054A4.274,4.274,0,0,0,8.059-2.785a4.274,4.274,0,0,0,4.269,4.269A4.274,4.274,0,0,0,16.6-2.785,4.274,4.274,0,0,0,12.328-7.054Zm0,5.692a1.424,1.424,0,0,1-1.423-1.423,1.424,1.424,0,0,1,1.423-1.423,1.424,1.424,0,0,1,1.423,1.423A1.424,1.424,0,0,1,12.328-1.362Z" transform="translate(14.878 14.869)" fill="#1c77ec"/>
  </g>
</svg>
