<svg xmlns="http://www.w3.org/2000/svg" width="223.218" height="54.8" viewBox="0 0 223.218 54.8">
  <g id="trustpilot-1" transform="translate(-20.5 -248.5)">
    <path id="Path_209" data-name="Path 209" d="M178.137,300.7h22.582v4.2h-8.892v23.7h-4.874V304.9H178.1Zm21.615,7.7h4.167v3.906h.074a4.908,4.908,0,0,1,.781-1.6,6.184,6.184,0,0,1,1.377-1.414,6.088,6.088,0,0,1,1.786-1.042,5.2,5.2,0,0,1,1.972-.409c.521,0,.893.037,1.079.037a3.256,3.256,0,0,0,.6.074v4.278a7.529,7.529,0,0,0-.967-.149,8.458,8.458,0,0,0-.967-.074,5.164,5.164,0,0,0-2.121.446,5.376,5.376,0,0,0-1.749,1.3,7.054,7.054,0,0,0-1.19,2.158,9.1,9.1,0,0,0-.446,2.976v9.6h-4.464Zm32.292,20.2h-4.39v-2.827h-.074a6.233,6.233,0,0,1-2.455,2.455,6.481,6.481,0,0,1-3.311.93c-2.641,0-4.576-.632-5.766-1.972-1.191-1.3-1.786-3.311-1.786-5.952V308.4h4.464V320.79c0,1.786.335,3.051,1.042,3.757a3.673,3.673,0,0,0,2.865,1.116,5.488,5.488,0,0,0,2.344-.446,4.043,4.043,0,0,0,1.525-1.153,4.525,4.525,0,0,0,.856-1.749,8.26,8.26,0,0,0,.26-2.195V308.4h4.464v20.2Zm7.589-6.473a3.512,3.512,0,0,0,1.488,2.753,5.859,5.859,0,0,0,3.088.781,10.225,10.225,0,0,0,1.414-.112,6.23,6.23,0,0,0,1.488-.372,2.618,2.618,0,0,0,1.153-.818,1.905,1.905,0,0,0,.409-1.377,2,2,0,0,0-.632-1.414,5.269,5.269,0,0,0-1.488-.893,12.9,12.9,0,0,0-2.083-.558c-.781-.149-1.563-.335-2.381-.521s-1.637-.409-2.418-.67a6.931,6.931,0,0,1-2.083-1.079,4.64,4.64,0,0,1-1.451-1.711,5.348,5.348,0,0,1-.558-2.567,4.4,4.4,0,0,1,.818-2.753,5.933,5.933,0,0,1,2.046-1.786,9.287,9.287,0,0,1,2.753-.967,15.763,15.763,0,0,1,2.865-.26,12.8,12.8,0,0,1,2.976.335,7.523,7.523,0,0,1,2.567,1.079,5.894,5.894,0,0,1,1.9,1.935,6.7,6.7,0,0,1,.967,2.865h-4.65a2.864,2.864,0,0,0-1.451-2.158,5.991,5.991,0,0,0-2.641-.558c-.3,0-.707.037-1.116.074a6.575,6.575,0,0,0-1.228.3,2.909,2.909,0,0,0-.967.632,1.488,1.488,0,0,0-.409,1.079,1.635,1.635,0,0,0,.558,1.3,5.057,5.057,0,0,0,1.488.856,12.9,12.9,0,0,0,2.083.558c.781.149,1.6.335,2.418.521s1.6.409,2.381.67a6.516,6.516,0,0,1,2.083,1.079,5.366,5.366,0,0,1,1.488,1.674,5.142,5.142,0,0,1,.558,2.493,5.423,5.423,0,0,1-.818,3.051,6.957,6.957,0,0,1-2.121,2.046,10.515,10.515,0,0,1-2.9,1.153,15.585,15.585,0,0,1-3.162.372,13.324,13.324,0,0,1-3.534-.446,9,9,0,0,1-2.827-1.3,6.245,6.245,0,0,1-1.86-2.2,7.167,7.167,0,0,1-.744-3.125h4.5v.037Zm14.7-13.728h3.385v-6.1h4.464v6.064H266.2v3.311h-4.018v10.789a11.447,11.447,0,0,0,.074,1.228,2.578,2.578,0,0,0,.26.856,1.453,1.453,0,0,0,.632.521,3.319,3.319,0,0,0,1.19.186,7.783,7.783,0,0,0,.93-.037,8.07,8.07,0,0,0,.93-.149v3.46c-.484.074-.967.112-1.451.149a9.24,9.24,0,0,1-1.451.074,9.616,9.616,0,0,1-2.827-.335,4.063,4.063,0,0,1-1.674-.967,3.459,3.459,0,0,1-.818-1.6,12.7,12.7,0,0,1-.26-2.232v-11.9h-3.385V308.4Zm14.993,0h4.2v2.753h.074a5.526,5.526,0,0,1,2.6-2.53,8.435,8.435,0,0,1,3.646-.781,9.167,9.167,0,0,1,4.167.856,7.818,7.818,0,0,1,2.939,2.307,9.621,9.621,0,0,1,1.749,3.423,15.029,15.029,0,0,1,.074,8.11,10.945,10.945,0,0,1-1.6,3.385,7.915,7.915,0,0,1-2.716,2.344,8.03,8.03,0,0,1-3.869.893,11.354,11.354,0,0,1-1.935-.186,8.233,8.233,0,0,1-1.86-.558,6.674,6.674,0,0,1-1.637-1A5.667,5.667,0,0,1,273.9,326h-.074V336.08h-4.464V308.4ZM284.91,318.52a9.065,9.065,0,0,0-.372-2.641,6.738,6.738,0,0,0-1.079-2.269,5.951,5.951,0,0,0-1.749-1.6,4.759,4.759,0,0,0-2.418-.6,4.941,4.941,0,0,0-4.241,1.935,8.811,8.811,0,0,0-1.414,5.208,9.635,9.635,0,0,0,.372,2.827,6.3,6.3,0,0,0,1.116,2.232,5.316,5.316,0,0,0,1.786,1.488,5.044,5.044,0,0,0,2.418.558,4.95,4.95,0,0,0,2.567-.632,6,6,0,0,0,1.749-1.6,6.546,6.546,0,0,0,.967-2.269A12.774,12.774,0,0,0,284.91,318.52Zm7.85-17.82h4.464v4.2H292.76Zm0,7.7h4.464v20.2H292.76Zm8.445-7.7h4.464v27.9H301.2Zm18.081,28.46a10.631,10.631,0,0,1-4.316-.818,9.8,9.8,0,0,1-3.2-2.195,9.557,9.557,0,0,1-1.972-3.385,13.226,13.226,0,0,1-.707-4.278,12.084,12.084,0,0,1,.707-4.241,9.9,9.9,0,0,1,1.972-3.385,8.923,8.923,0,0,1,3.2-2.195,11.293,11.293,0,0,1,4.316-.818,10.631,10.631,0,0,1,4.316.818,9.26,9.26,0,0,1,3.2,2.195,9.557,9.557,0,0,1,1.972,3.385,13,13,0,0,1,.707,4.241,12.149,12.149,0,0,1-.707,4.278,10.53,10.53,0,0,1-1.972,3.385,8.923,8.923,0,0,1-3.2,2.195A11.155,11.155,0,0,1,319.285,329.16Zm0-3.534a5.145,5.145,0,0,0,2.567-.632,5.385,5.385,0,0,0,1.786-1.637,7.013,7.013,0,0,0,1.042-2.269,10.15,10.15,0,0,0,0-5.171,6.671,6.671,0,0,0-1.042-2.269,5.652,5.652,0,0,0-1.786-1.6,5.248,5.248,0,0,0-2.567-.632,5.145,5.145,0,0,0-2.567.632,5.7,5.7,0,0,0-1.786,1.6,6.67,6.67,0,0,0-1.042,2.269,10.15,10.15,0,0,0,0,5.171,6.67,6.67,0,0,0,1.042,2.269,5.771,5.771,0,0,0,1.786,1.637A4.872,4.872,0,0,0,319.285,325.626ZM330.818,308.4H334.2v-6.1h4.464v6.064h4.018v3.311h-4.018v10.789a11.447,11.447,0,0,0,.074,1.228,2.579,2.579,0,0,0,.26.856,1.454,1.454,0,0,0,.632.521,3.319,3.319,0,0,0,1.19.186,7.777,7.777,0,0,0,.93-.037,8.064,8.064,0,0,0,.93-.149v3.46c-.484.074-.967.112-1.451.149a9.24,9.24,0,0,1-1.451.074,9.616,9.616,0,0,1-2.827-.335,4.062,4.062,0,0,1-1.674-.967,3.458,3.458,0,0,1-.818-1.6,12.7,12.7,0,0,1-.26-2.232v-11.9h-3.385V308.4Z" transform="translate(-98.968 -32.78)" fill="#fff"/>
    <path id="Path_210" data-name="Path 210" d="M73.961,267.92H53.536L47.249,248.5l-6.325,19.42L20.5,267.883,37.018,279.9l-6.325,19.42L47.212,287.3,63.73,299.319,57.443,279.9Z" transform="translate(0 0)" fill="#00b67a"/>
    <path id="Path_211" data-name="Path 211" d="M104.007,337.29l-1.414-4.39L92.4,340.3Z" transform="translate(-45.151 -53.001)" fill="#005128"/>
  </g>
</svg>
