<svg xmlns="http://www.w3.org/2000/svg" width="40" height="40" viewBox="0 0 40 40">
  <g id="Group_34" data-name="Group 34" transform="translate(0 20)">
    <path id="Path_207" data-name="Path 207" d="M29-2A11,11,0,1,1,18,9,11,11,0,0,1,29-2ZM24.048,4.048a1,1,0,0,0,0,1.414L27.586,9l-3.533,3.533a1,1,0,1,0,1.414,1.414L29,10.416l3.539,3.538a1,1,0,0,0,1.414-1.414L30.416,9l3.543-3.539a1,1,0,0,0-1.414-1.414L29,7.588l-3.54-3.54A1,1,0,0,0,24.048,4.048ZM29.5-20A6.5,6.5,0,0,1,36-13.5L36-1.955a12.938,12.938,0,0,0-3-1.418V-9H3V9.5A3.5,3.5,0,0,0,6.5,13H16.627a12.938,12.938,0,0,0,1.418,3L6.5,16A6.5,6.5,0,0,1,0,9.5v-23A6.5,6.5,0,0,1,6.5-20Zm0,3H6.5A3.5,3.5,0,0,0,3-13.5V-12H33v-1.5A3.5,3.5,0,0,0,29.5-17Z" transform="translate(0 0)" fill="#1c76ec"/>
  </g>
</svg>
