<svg xmlns="http://www.w3.org/2000/svg" width="38" height="38" viewBox="0 0 38 38">
  <g id="Group_33" data-name="Group 33" transform="translate(0 20)">
    <path id="Path_206" data-name="Path 206" d="M19-20A19.022,19.022,0,0,0,0-1V6.872A3.676,3.676,0,0,0,3.8,10.4H5.7A1.909,1.909,0,0,0,7.6,8.5V-1.272a1.909,1.909,0,0,0-1.9-1.9H3.975A15.207,15.207,0,0,1,19-16.2,15.207,15.207,0,0,1,34.025-3.172H32.3a1.909,1.909,0,0,0-1.9,1.9V10.4a3.8,3.8,0,0,1-3.8,3.8H22.8V12.3H15.2V18H26.6a7.608,7.608,0,0,0,7.6-7.6A3.676,3.676,0,0,0,38,6.872V-1A19.022,19.022,0,0,0,19-20Z" fill="#1c7bec"/>
  </g>
</svg>
