<svg id="_809596_office_rushour_time_time_is_money_icon" data-name="809596_office_rushour_time_time is money_icon" xmlns="http://www.w3.org/2000/svg" width="25.667" height="25.667" viewBox="0 0 25.667 25.667">
  <path id="Path_590" data-name="Path 590" d="M23.314,5.561A12.408,12.408,0,0,0,12.833,0,12.871,12.871,0,0,0,0,12.833H2.139A10.683,10.683,0,0,1,21.817,7.058L19.25,9.625h6.417V3.208Z" fill="#1c7fec"/>
  <circle id="Ellipse_40" data-name="Ellipse 40" cx="1" cy="1" r="1" transform="translate(3 11.667)" fill="#1c7fec"/>
  <circle id="Ellipse_41" data-name="Ellipse 41" cx="1.069" cy="1.069" r="1.069" transform="translate(5.668 5.668)" fill="#1c7fec"/>
  <circle id="Ellipse_42" data-name="Ellipse 42" cx="1.069" cy="1.069" r="1.069" transform="translate(17.86 5.668)" fill="#1c7fec"/>
  <circle id="Ellipse_43" data-name="Ellipse 43" cx="1" cy="1" r="1" transform="translate(20 11.667)" fill="#1c7fec"/>
  <path id="Path_591" data-name="Path 591" d="M16.916,18.518a1.059,1.059,0,1,0,0-1.5A1.282,1.282,0,0,0,16.916,18.518Z" transform="translate(1.158 1.16)" fill="#1c7fec"/>
  <circle id="Ellipse_44" data-name="Ellipse 44" cx="1" cy="1" r="1" transform="translate(12 20.667)" fill="#1c7fec"/>
  <path id="Path_592" data-name="Path 592" d="M5.621,16.916a1.059,1.059,0,0,0,1.5,1.5,1.034,1.034,0,0,0,0-1.5A1.282,1.282,0,0,0,5.621,16.916Z" transform="translate(0.368 1.158)" fill="#1c7fec"/>
  <path id="Path_593" data-name="Path 593" d="M12.139,3a1.01,1.01,0,0,0-1.069,1.069v6.737A2.07,2.07,0,0,0,10,12.625a2.145,2.145,0,0,0,2.139,2.139.964.964,0,0,0,.535-.107l1.711,1.711a1.059,1.059,0,0,0,1.5-1.5L14.171,13.16c0-.214.107-.321.107-.535a2.07,2.07,0,0,0-1.069-1.818V4.069A1.01,1.01,0,0,0,12.139,3Zm-1.069,9.625a1.01,1.01,0,0,1,1.069-1.069,1.069,1.069,0,0,1,0,2.139.643.643,0,0,1-.428-.107c-.107-.107-.214-.107-.321-.214h0A.971.971,0,0,1,11.069,12.625Z" transform="translate(0.694 0.208)" fill="#1c7fec"/>
  <path id="Path_594" data-name="Path 594" d="M12.833,22.694A10.647,10.647,0,0,1,3.85,17.775l2.567-2.567H0v6.417l2.353-2.353a12.669,12.669,0,0,0,10.481,5.561A12.871,12.871,0,0,0,25.667,12H23.528A10.726,10.726,0,0,1,12.833,22.694Z" transform="translate(0 0.833)" fill="#1c7fec"/>
</svg>
