<?xml version="1.0" encoding="UTF-8" standalone="no"?><!DOCTYPE svg PUBLIC "-//W3C//DTD SVG 1.1//EN" "http://www.w3.org/Graphics/SVG/1.1/DTD/svg11.dtd"><svg width="100%" height="100%" viewBox="0 0 55 55" version="1.1" xmlns="http://www.w3.org/2000/svg" xmlns:xlink="http://www.w3.org/1999/xlink" xml:space="preserve" xmlns:serif="http://www.serif.com/" style="fill-rule:evenodd;clip-rule:evenodd;stroke-linejoin:round;stroke-miterlimit:2;"><g><path d="M38.163,54.783l-21.672,-0.007c-1.125,0.007 -2.192,-0.438 -2.984,-1.23c-0.934,-0.934 -1.379,-2.256 -1.195,-3.557l2.029,-14.687c0.297,-2.064 2.086,-3.627 4.186,-3.634l1.768,0l-0.007,-24.572c0.007,-0.375 0.155,-0.735 0.417,-0.997l5.621,-5.622c0.552,-0.551 1.45,-0.544 1.994,0l5.622,5.622c0.431,0.431 0.537,1.089 0.269,1.626l-2.504,4.992l2.497,5c0.198,0.396 0.198,0.862 0,1.258l-1.796,3.592l0.537,0c0.778,0 1.414,0.637 1.407,1.408l0,7.693l1.768,0c2.1,0.007 3.889,1.57 4.179,3.642l2.036,14.679c0.184,1.301 -0.261,2.623 -1.195,3.557c-0.792,0.792 -1.859,1.237 -2.984,1.244l0.007,-0.007Zm-21.029,-19.092l-2.036,14.68c-0.057,0.438 0.084,0.877 0.396,1.188c0.268,0.269 0.622,0.41 0.997,0.417l21.672,-0.007c0.368,-0 0.729,-0.149 0.99,-0.41c0.311,-0.311 0.453,-0.75 0.396,-1.188l-2.029,-14.673c-0.099,-0.693 -0.693,-1.216 -1.393,-1.223l-17.6,0.007c-0.7,0.007 -1.294,0.516 -1.393,1.209Zm5.975,-4.023l8.429,-0l0.007,-6.286l-1.407,-0.007c-0.375,0.007 -0.729,-0.149 -0.99,-0.41c-0.432,-0.432 -0.545,-1.082 -0.269,-1.627l2.496,-4.999l-2.503,-4.992c-0.191,-0.389 -0.198,-0.863 0.007,-1.252l2.355,-4.716l-3.918,-3.918l-4.214,4.215l0.007,23.992Zm11.639,17.494l-14.849,-0c-0.375,-0.007 -0.729,-0.149 -0.997,-0.417c-0.318,-0.319 -0.467,-0.778 -0.389,-1.224l0.933,-5.628c0.113,-0.679 0.707,-1.174 1.386,-1.174l12.969,-0c0.692,-0 1.279,0.502 1.393,1.181l0.94,5.621c0.071,0.453 -0.071,0.905 -0.396,1.231c-0.262,0.261 -0.622,0.41 -0.997,0.403l0.007,0.007Zm-13.18,-2.815l11.518,-0.007l-0.473,-2.807l-10.579,-0l-0.466,2.814Z" style="fill:#1c7fec;fill-rule:nonzero;"/><path id="Path_183" d="M21.123,40.642c-0.664,-0.001 -1.562,0.412 -1.671,1.089l-0.967,5.814c-0.073,0.448 0.039,0.936 0.35,1.258c0.256,0.263 0.928,0.383 1.289,0.383l14.391,0c0.361,-0.001 0.944,-0.149 1.2,-0.414c0.311,-0.321 0.483,-0.808 0.41,-1.256l-0.849,-5.697c-0.109,-0.677 -0.947,-1.147 -1.612,-1.147l-12.541,-0.03Zm11.724,5.606l-11.113,0.119l0.459,-2.815l10.263,0l0.391,2.696Z" style="fill:#1c7fec;fill-rule:nonzero;"/></g></svg>