<svg xmlns="http://www.w3.org/2000/svg" width="20" height="20" viewBox="0 0 20 20">
  <g id="Group_1" data-name="Group 1" transform="translate(0 30)">
    <path id="Path_2" data-name="Path 2" d="M16.667-16.667a3.349,3.349,0,0,1-3.333,3.333A3.349,3.349,0,0,1,10-16.667,3.349,3.349,0,0,1,13.333-20,3.349,3.349,0,0,1,16.667-16.667Z" transform="translate(-3.333 -3.333)" fill="#adb2b9"/>
    <path id="Path_3" data-name="Path 3" d="M10-30A10.048,10.048,0,0,0,0-20,10.048,10.048,0,0,0,10-10,10.048,10.048,0,0,0,20-20,10.048,10.048,0,0,0,10-30Zm0,16.667A6.7,6.7,0,0,1,3.333-20,6.7,6.7,0,0,1,10-26.667,6.7,6.7,0,0,1,16.667-20,6.7,6.7,0,0,1,10-13.333Z" fill="#adb2b9"/>
  </g>
</svg>
