<svg id="Group_33" data-name="Group 33" xmlns="http://www.w3.org/2000/svg" width="19.001" height="19.001" viewBox="0 0 19.001 19.001">
  <path id="Path_154" data-name="Path 154" d="M16.41-18.545H13.819v-.864A2.6,2.6,0,0,0,11.228-22H7.773a2.6,2.6,0,0,0-2.591,2.591v.864H2.591A2.6,2.6,0,0,0,0-15.954V-5.59A2.6,2.6,0,0,0,2.591-3H16.41A2.6,2.6,0,0,0,19-5.59V-15.954A2.6,2.6,0,0,0,16.41-18.545Zm-2.591,1.727V-4.727H5.182V-16.818ZM6.909-19.409a.868.868,0,0,1,.864-.864h3.455a.868.868,0,0,1,.864.864v.864H6.909ZM1.727-5.59V-15.954a.868.868,0,0,1,.864-.864h.864V-4.727H2.591A.868.868,0,0,1,1.727-5.59Zm15.546,0a.868.868,0,0,1-.864.864h-.864V-16.818h.864a.868.868,0,0,1,.864.864Z" transform="translate(0 22)" fill="#1c78ec"/>
</svg>
