<svg xmlns="http://www.w3.org/2000/svg" width="31.987" height="24.125" viewBox="0 0 31.987 24.125">
  <g id="Group_133" data-name="Group 133" transform="translate(-93.213 -28.542)">
    <g id="Group_132" data-name="Group 132" transform="translate(97.007 37.133)">
      <path id="Path_589" data-name="Path 589" d="M5.967-175.5l12.2-.1s.277,1.037.482,1.547H5.5A3.686,3.686,0,0,1,5.967-175.5Zm-3.74-6.889a7,7,0,0,0,2.657.689c1.279,0,1.87,1.772,1.87,1.772-.394-.2-1.476.394-3.346-.2A1.652,1.652,0,0,1,2.227-182.385Zm10.728,2.067a.886.886,0,0,1-.886.886.886.886,0,0,1-.886-.886.886.886,0,0,1,.886-.886A.886.886,0,0,1,12.955-180.319ZM6.36-187.208c.394-.1,10.925-.3,11.417-.1s2.264,3.543,2.264,3.543H4.2S5.967-187.11,6.36-187.208Zm15.889,4.823a1.652,1.652,0,0,1-1.181,2.264c-1.87.59-2.953,0-3.346.2,0,0,.59-1.772,1.87-1.772A7,7,0,0,0,22.249-182.385Zm1.643,8.338h-.309c0-.755.1-7.754-.1-8.239a6.358,6.358,0,0,0-.559-.808c1.048-.189,1.972-1.41,1.094-1.849a5.515,5.515,0,0,0-2.7-.154,20.107,20.107,0,0,0-3.153-3.29c-.984-.492-11.515-.492-12.106,0-.3.252-1.718,1.773-3.039,3.274a5.275,5.275,0,0,0-2.571.171c-.822.411-.065,1.508.9,1.8a5.084,5.084,0,0,0-.8,1.151,62.438,62.438,0,0,0,.014,7.944H.411a.413.413,0,0,0-.411.411.413.413,0,0,0,.411.411H23.893a.413.413,0,0,0,.411-.411A.413.413,0,0,0,23.893-174.048Z" transform="translate(0 188.758)" fill="#1c7fec"/>
    </g>
    <line id="Line_25" data-name="Line 25" y1="4.712" x2="15.706" transform="translate(93.5 29.5)" fill="none" stroke="#1c7fec" stroke-width="2"/>
    <line id="Line_26" data-name="Line 26" x1="15.706" y1="4.712" transform="translate(109.206 29.5)" fill="none" stroke="#1c7fec" stroke-width="2"/>
  </g>
</svg>
