<svg xmlns="http://www.w3.org/2000/svg" xmlns:xlink="http://www.w3.org/1999/xlink" width="68" height="51.459" viewBox="0 0 68 51.459">
  <defs>
    <linearGradient id="linear-gradient" y1="1" x2="1" gradientUnits="objectBoundingBox">
      <stop offset="0" stop-color="#1cb0ec"/>
      <stop offset="1" stop-color="#1c72ec"/>
    </linearGradient>
  </defs>
  <path id="Path_575" data-name="Path 575" d="M67.3,7.22A10.332,10.332,0,0,0,64.92,3.306,11.727,11.727,0,0,0,60.3.424,22.169,22.169,0,0,0,52.921-.609h-4.1a22.292,22.292,0,0,1,5.4-12.892,40.336,40.336,0,0,1,12.911-9.327L63.79-28A50.28,50.28,0,0,0,45.2-14.439Q37.474-5.487,37.485,3.306q0,9.45,4.484,14.809t12.872,5.344a13.336,13.336,0,0,0,9.235-3.543A10.838,10.838,0,0,0,68,11.646a14.153,14.153,0,0,0-.7-4.426m-37.485,0a10.365,10.365,0,0,0-2.387-3.915A11.687,11.687,0,0,0,22.815.424,22.135,22.135,0,0,0,15.434-.609h-4.1A22.314,22.314,0,0,1,16.726-13.5a40.407,40.407,0,0,1,12.913-9.327L26.3-28A50.28,50.28,0,0,0,7.71-14.439Q-.012-5.487,0,3.306c0,6.3,1.483,11.242,4.482,14.809s7.287,5.344,12.872,5.344a13.343,13.343,0,0,0,9.237-3.543,10.836,10.836,0,0,0,3.922-8.27,14.313,14.313,0,0,0-.695-4.426" transform="translate(0 28)" fill-rule="evenodd" fill="url(#linear-gradient)"/>
</svg>
