<svg id="btn_info" data-name="btn info" xmlns="http://www.w3.org/2000/svg" width="24" height="24" viewBox="0 0 24 24">
  <path id="Path_158" data-name="Path 158" d="M12-85A12,12,0,0,0,0-73,12,12,0,0,0,12-61,12,12,0,0,0,24-73,12,12,0,0,0,12-85Zm-.06,18.711a2.265,2.265,0,0,1-.937.368l-.054.025v-.025a1.219,1.219,0,0,1-.241-.035l-.12-.03a1.193,1.193,0,0,1-.851-1.488l.925-3.73.418-1.685c.389-1.564-1.232.333-1.564-.388-.219-.476,1.26-1.476,2.342-2.229a2.267,2.267,0,0,1,.937-.368l.054-.025v.025a1.238,1.238,0,0,1,.242.035l.12.03a1.239,1.239,0,0,1,.9,1.5l-.925,3.73-.418,1.685c-.388,1.564,1.206-.34,1.538.381C14.528-68.036,13.021-67.043,11.94-66.289Zm2.345-11.659a1.736,1.736,0,0,1-2.1,1.267,1.736,1.736,0,0,1-1.267-2.1,1.735,1.735,0,0,1,2.1-1.267A1.736,1.736,0,0,1,14.285-77.949Z" transform="translate(0 85)" fill="#dbdbdb"/>
</svg>
