<svg xmlns="http://www.w3.org/2000/svg" width="40" height="29.231" viewBox="0 0 40 29.231">
  <g id="Group_7" data-name="Group 7" transform="translate(0 19)">
    <path id="Path_18" data-name="Path 18" d="M34.031-19H5.969A6.013,6.013,0,0,0,0-13.015V4.246a6.013,6.013,0,0,0,5.969,5.985H34.031A6.013,6.013,0,0,0,40,4.246V-13.015A6.013,6.013,0,0,0,34.031-19ZM5.969-15.923H34.031a2.921,2.921,0,0,1,2.892,2.908v1.708H3.077v-1.708A2.921,2.921,0,0,1,5.969-15.923ZM34.031,7.154H5.969A2.921,2.921,0,0,1,3.077,4.246V-8.231H36.923V4.246A2.921,2.921,0,0,1,34.031,7.154Z" transform="translate(0)" fill="#1c78ec"/>
    <path id="Path_19" data-name="Path 19" d="M24.231-6H16.538A1.546,1.546,0,0,0,15-4.462a1.546,1.546,0,0,0,1.538,1.538h7.692a1.546,1.546,0,0,0,1.538-1.538A1.546,1.546,0,0,0,24.231-6Z" transform="translate(8.077 7)" fill="#1c78ec"/>
  </g>
</svg>
