<svg id="tripadvisor" xmlns="http://www.w3.org/2000/svg" width="79.997" height="50" viewBox="0 0 79.997 50">
  <path id="Path_212" data-name="Path 212" d="M74.025,127.9a10.009,10.009,0,1,0,9.994,10.009A10.013,10.013,0,0,0,74.025,127.9Zm0,17.177a7.167,7.167,0,1,1,7.152-7.167A7.167,7.167,0,0,1,74.025,145.077Z" transform="translate(-54.006 -107.928)" fill="#fff"/>
  <circle id="Ellipse_24" data-name="Ellipse 24" cx="4.981" cy="4.981" r="4.981" transform="translate(15.069 24.984)" fill="#fff"/>
  <path id="Path_213" data-name="Path 213" d="M330.109,127.9a10.009,10.009,0,1,0,10.009,10.009A10.01,10.01,0,0,0,330.109,127.9Zm0,17.177a7.167,7.167,0,1,1,7.152-7.167A7.167,7.167,0,0,1,330.109,145.077Z" transform="translate(-270.116 -107.928)" fill="#fff"/>
  <circle id="Ellipse_25" data-name="Ellipse 25" cx="4.981" cy="4.981" r="4.981" transform="translate(55.044 24.984)" fill="#fff"/>
  <path id="Path_214" data-name="Path 214" d="M74.079,15.8l5.887-5.84H68.036A47.871,47.871,0,0,0,39.959,0a47.592,47.592,0,0,0-28,9.963H0L5.887,15.8A20.016,20.016,0,0,0,33.26,44.988l6.777,4.981,6.7-4.872-.078-.187A20,20,0,0,0,74.079,15.8ZM57.464,10.119a20.012,20.012,0,0,0-17.473,18.66,20.017,20.017,0,0,0-17.536-18.66C27.233,6.683,33.323,5,39.959,5S52.686,6.683,57.464,10.119ZM20.019,45A15.022,15.022,0,1,1,35.041,29.981,15.018,15.018,0,0,1,20.019,45Zm39.975,0A15.022,15.022,0,1,1,75.016,29.981,15.028,15.028,0,0,1,59.994,45Z" fill="#fff"/>
</svg>
